<svg xmlns:mydata="http://www.w3.org/2000/svg" mydata:contrastcolor="FFC658" mydata:template="Default" mydata:presentation="2.5" mydata:layoutType="undefined" mydata:specialFontId="undefined" mydata:id1="050" mydata:id2="009" mydata:companyName="Toptutors" mydata:companyTagline="" version="1.1" xmlns="http://www.w3.org/2000/svg" xmlns:xlink="http://www.w3.org/1999/xlink" viewBox="0 50 330 200" preserveAspectRatio="x700Y900 meet" width="100%" height="100"><g fill="none" fill-rule="nonzero" stroke="none" stroke-width="1" stroke-linecap="butt" stroke-linejoin="miter" stroke-miterlimit="10" stroke-dasharray="" stroke-dashoffset="0" font-family="none" font-weight="none" font-size="none" text-anchor="none" style="mix-blend-mode: normal"><g data-paper-data="{&quot;isGlobalGroup&quot;:true}"><g data-paper-data="{&quot;isPrimaryText&quot;:true}"><path d="M107.11875,355v-24.60399h-15.13146v-4.26469h35.30673v4.26469h-14.72139v24.60399z" data-paper-data="{&quot;glyphName&quot;:&quot;T&quot;,&quot;glyphIndex&quot;:0,&quot;firstGlyphOfWord&quot;:true,&quot;word&quot;:1}" fill="#009ace"></path><path d="M138.65287,355c-1.64027,0 -3.03449,-0.17086 -4.18268,-0.51258c-1.14819,-0.34172 -2.08451,-0.82013 -2.80896,-1.43523c-0.72445,-0.6151 -1.2507,-1.34639 -1.57876,-2.19386c-0.32805,-0.84747 -0.49208,-1.79062 -0.49208,-2.82946v-14.92642c0,-1.03884 0.16403,-1.98199 0.49208,-2.82946c0.32805,-0.84747 0.85431,-1.57876 1.57876,-2.19386c0.72445,-0.6151 1.66077,-1.09351 2.80896,-1.43523c1.14819,-0.34172 2.54241,-0.51258 4.18268,-0.51258h19.0681c1.64027,0 3.03449,0.17086 4.18268,0.51258c1.14819,0.34172 2.08451,0.82013 2.80896,1.43523c0.72445,0.6151 1.2507,1.34639 1.57876,2.19386c0.32805,0.84747 0.49208,1.79062 0.49208,2.82946v14.92642c0,1.03884 -0.16403,1.98199 -0.49208,2.82946c-0.32805,0.84747 -0.85431,1.57876 -1.57876,2.19386c-0.72445,0.6151 -1.66077,1.09351 -2.80896,1.43523c-1.14819,0.34172 -2.54241,0.51258 -4.18268,0.51258zM161.32955,333.06144c0,-1.77696 -1.20286,-2.66543 -3.60859,-2.66543h-19.0681c-2.40572,0 -3.60859,0.88848 -3.60859,2.66543v15.00844c0,1.77696 1.20286,2.66543 3.60859,2.66543h19.0681c2.40572,0 3.60859,-0.88848 3.60859,-2.66543z" data-paper-data="{&quot;glyphName&quot;:&quot;O&quot;,&quot;glyphIndex&quot;:1,&quot;word&quot;:1}" fill="#009ace"></path><path d="M177.36315,344.33827v10.66173h-5.45389v-28.86869h23.66084c1.64027,0 3.03449,0.17086 4.18268,0.51258c1.14819,0.34172 2.08451,0.82013 2.80896,1.43523c0.72445,0.6151 1.2507,1.34639 1.57876,2.19386c0.32805,0.84747 0.49208,1.79062 0.49208,2.82946v4.26469c0,1.03884 -0.16403,1.98199 -0.49208,2.82946c-0.32805,0.84747 -0.85431,1.57876 -1.57876,2.19386c-0.72445,0.6151 -1.66077,1.09351 -2.80896,1.43523c-1.14819,0.34172 -2.54241,0.51258 -4.18268,0.51258zM199.17869,333.06144c0,-1.77696 -1.20286,-2.66543 -3.60859,-2.66543h-18.20696v9.67757h18.20696c2.40572,0 3.60859,-0.88848 3.60859,-2.66543z" data-paper-data="{&quot;glyphName&quot;:&quot;P&quot;,&quot;glyphIndex&quot;:2,&quot;lastGlyphOfWord&quot;:true,&quot;word&quot;:1}" fill="#009ace"></path><path d="M242.3587,355v-24.60399h-15.13146v-4.26469h35.30673v4.26469h-14.72139v24.60399z" data-paper-data="{&quot;glyphName&quot;:&quot;T&quot;,&quot;glyphIndex&quot;:3,&quot;firstGlyphOfWord&quot;:true,&quot;word&quot;:2}" fill="#000000"></path><path d="M275.12302,355c-1.64027,0 -3.03449,-0.17086 -4.18268,-0.51258c-1.14819,-0.34172 -2.08451,-0.82013 -2.80896,-1.43523c-0.72445,-0.6151 -1.2507,-1.34639 -1.57876,-2.19386c-0.32805,-0.84747 -0.49208,-1.79062 -0.49208,-2.82946v-21.89755h5.45389v21.93856c0,1.77696 1.20286,2.66543 3.60859,2.66543h17.91991c2.40572,0 3.60859,-0.88848 3.60859,-2.66543v-21.93856h5.45389v21.89755c0,1.03884 -0.10252,1.98199 -0.30755,2.82946c-0.20503,0.84747 -0.60143,1.57876 -1.18919,2.19386c-0.58776,0.6151 -1.39423,1.09351 -2.41939,1.43523c-1.02517,0.34172 -2.35788,0.51258 -3.99815,0.51258z" data-paper-data="{&quot;glyphName&quot;:&quot;U&quot;,&quot;glyphIndex&quot;:4,&quot;word&quot;:2}" fill="#000000"></path><path d="M320.72242,355v-24.60399h-15.13146v-4.26469h35.30673v4.26469h-14.72139v24.60399z" data-paper-data="{&quot;glyphName&quot;:&quot;T&quot;,&quot;glyphIndex&quot;:5,&quot;word&quot;:2}" fill="#000000"></path><path d="M352.25654,355c-1.64027,0 -3.03449,-0.17086 -4.18268,-0.51258c-1.14819,-0.34172 -2.08451,-0.82013 -2.80896,-1.43523c-0.72445,-0.6151 -1.2507,-1.34639 -1.57876,-2.19386c-0.32805,-0.84747 -0.49208,-1.79062 -0.49208,-2.82946v-14.92642c0,-1.03884 0.16403,-1.98199 0.49208,-2.82946c0.32805,-0.84747 0.85431,-1.57876 1.57876,-2.19386c0.72445,-0.6151 1.66077,-1.09351 2.80896,-1.43523c1.14819,-0.34172 2.54241,-0.51258 4.18268,-0.51258h19.0681c1.64027,0 3.03449,0.17086 4.18268,0.51258c1.14819,0.34172 2.08451,0.82013 2.80896,1.43523c0.72445,0.6151 1.2507,1.34639 1.57876,2.19386c0.32805,0.84747 0.49208,1.79062 0.49208,2.82946v14.92642c0,1.03884 -0.16403,1.98199 -0.49208,2.82946c-0.32805,0.84747 -0.85431,1.57876 -1.57876,2.19386c-0.72445,0.6151 -1.66077,1.09351 -2.80896,1.43523c-1.14819,0.34172 -2.54241,0.51258 -4.18268,0.51258zM374.93322,333.06144c0,-1.77696 -1.20286,-2.66543 -3.60859,-2.66543h-19.0681c-2.40572,0 -3.60859,0.88848 -3.60859,2.66543v15.00844c0,1.77696 1.20286,2.66543 3.60859,2.66543h19.0681c2.40572,0 3.60859,-0.88848 3.60859,-2.66543z" data-paper-data="{&quot;glyphName&quot;:&quot;O&quot;,&quot;glyphIndex&quot;:6,&quot;word&quot;:2}" fill="#000000"></path><path d="M412.94639,355l-6.7661,-12.87609h-15.21347v12.87609h-5.45389v-28.86869h24.52198c1.64027,0 3.03449,0.17086 4.18268,0.51258c1.14819,0.34172 2.08451,0.82013 2.80896,1.43523c0.72445,0.6151 1.2507,1.34639 1.57876,2.19386c0.32805,0.84747 0.49208,1.79062 0.49208,2.82946v2.05033c0,1.85897 -0.54676,3.41039 -1.64027,4.65426c-1.09351,1.24387 -2.92514,1.98882 -5.49489,2.23486l6.80711,12.9581zM413.64351,333.06144c0,-1.77696 -1.20286,-2.66543 -3.60859,-2.66543h-19.0681v7.46321h19.0681c2.40572,0 3.60859,-0.88848 3.60859,-2.66543z" data-paper-data="{&quot;glyphName&quot;:&quot;R&quot;,&quot;glyphIndex&quot;:7,&quot;word&quot;:2}" fill="#000000"></path><path d="M423.85416,355v-4.26469h25.09607c2.40572,0 3.60859,-0.88848 3.60859,-2.66543v-3.64959c0,-1.77696 -1.20286,-2.66543 -3.60859,-2.66543h-16.97676c-1.64027,0 -3.03449,-0.17086 -4.18268,-0.51258c-1.14819,-0.34172 -2.08451,-0.82013 -2.80896,-1.43523c-0.72445,-0.6151 -1.2507,-1.34639 -1.57876,-2.19386c-0.32805,-0.84747 -0.49208,-1.79062 -0.49208,-2.82946v-1.68127c0,-1.03884 0.16403,-1.98199 0.49208,-2.82946c0.32805,-0.84747 0.85431,-1.57876 1.57876,-2.19386c0.72445,-0.6151 1.66077,-1.09351 2.80896,-1.43523c1.14819,-0.34172 2.54241,-0.51258 4.18268,-0.51258h24.43997v4.26469h-24.43997c-2.40572,0 -3.60859,0.88848 -3.60859,2.66543v1.76329c0,1.77696 1.20286,2.66543 3.60859,2.66543h16.97676c1.64027,0 3.03449,0.17086 4.18268,0.51258c1.14819,0.34172 2.08451,0.82013 2.80896,1.43523c0.72445,0.6151 1.2507,1.34639 1.57876,2.19386c0.32805,0.84747 0.49208,1.79062 0.49208,2.82946v3.56758c0,1.03884 -0.16403,1.98199 -0.49208,2.82946c-0.32805,0.84747 -0.85431,1.57876 -1.57876,2.19386c-0.72445,0.6151 -1.66077,1.09351 -2.80896,1.43523c-1.14819,0.34172 -2.54241,0.51258 -4.18268,0.51258z" data-paper-data="{&quot;glyphName&quot;:&quot;S&quot;,&quot;glyphIndex&quot;:8,&quot;lastGlyphOfWord&quot;:true,&quot;word&quot;:2}" fill="#000000"></path></g><g data-paper-data="{&quot;fillRule&quot;:&quot;nonzero&quot;,&quot;initialText&quot;:&quot;T&quot;,&quot;selectedEffects&quot;:{&quot;container&quot;:&quot;hexagon_simple_outline1_rounded_upright&quot;,&quot;transformation&quot;:&quot;&quot;,&quot;pattern&quot;:&quot;&quot;},&quot;relativeBoundsIconToContainer&quot;:{&quot;top&quot;:&quot;0.04409280663966017&quot;,&quot;left&quot;:&quot;-6.570643091708707e-7&quot;},&quot;widthRatioIconToContainer&quot;:&quot;0.6889760337380019&quot;,&quot;heightRatioIconToContainer&quot;:&quot;0.6604914848917636&quot;,&quot;bounds&quot;:{&quot;x&quot;:193.9921108692805,&quot;y&quot;:115.00000000000003,&quot;width&quot;:162.01577826143898,&quot;height&quot;:179.8269657593393},&quot;isIcon&quot;:&quot;true&quot;,&quot;iconType&quot;:&quot;initial&quot;,&quot;iconStyle&quot;:&quot;standalone&quot;,&quot;rawInitialId&quot;:&quot;533&quot;}" fill="#009ace"><path d="M330.81239,191.31374h-3.41212c-0.97489,-12.34862 -20.79767,-35.746 -37.53329,-35.746h-1.94978v102.85098c0,10.07387 6.01182,11.69869 12.34862,11.69869v2.11227h-50.53184v-2.11227c6.33679,0 12.51109,-1.62482 12.51109,-11.69869v-102.85098h-3.5746c-17.71051,0 -34.12118,24.85971 -35.90847,35.746h-3.5746l2.92467,-37.85825h105.77566zM343.44646,150.8916c8.37428,4.83479 12.56143,12.08694 12.56143,21.75646v64.53104c0,9.66983 -4.18715,16.92188 -12.56143,21.75618l-55.88573,32.26552c-8.37386,4.83491 -16.74786,4.83491 -25.12203,0l-55.88554,-32.26552c-8.37404,-4.8343 -12.56106,-12.08636 -12.56106,-21.75618v-64.53104c0,-9.66951 4.18702,-16.92166 12.56106,-21.75646l55.88554,-32.26551c8.3741,-4.83478 16.74811,-4.83478 25.12203,0zM196.33459,172.64806v64.53104c0,8.76762 3.79661,15.34364 11.38982,19.72806l55.88554,32.26552c7.59315,4.38381 15.1864,4.38381 22.77973,0l55.88508,-32.26552c7.59377,-4.38381 11.39065,-10.95982 11.39065,-19.72806v-64.53104c0,-8.76792 -3.79688,-15.34385 -11.39065,-19.72778l-55.88508,-32.26554c-7.59327,-4.38395 -15.18652,-4.38394 -22.77973,0.00001l-55.88554,32.26553c-7.59321,4.38393 -11.38982,10.95986 -11.38982,19.72778z" data-paper-data="{&quot;isPathIcon&quot;:true}"></path></g></g></g></svg>